<svg fill="#000000" xmlns="http://www.w3.org/2000/svg">
  <g id="SvgjsG3955" featurekey="symbolFeature-0" transform="scale(2.5)" fill="#e4a11b">
    <path d="M7,25l6.75,6.75l6.75-6.75l-6.75-6.75L7,25Z"  style="fill-rule: evenodd; clip-rule: evenodd;"/>
    <path d="M14,27.25l2.25-2.25l-2.25-2.25l-2.25,2.25L14,27.25Z M9.25,25l4.5-4.5l4.5,4.5l-4.5,4.5L9.25,25Z" style="fill-rule: evenodd; clip-rule: evenodd;"/>
    <path d="M34,36.25l-9,-9l-9,9l9,9L34,36.25Z M36.75,36.25l-11.25,11.25l-11.25-11.25l11.25-11.25L36.75,36.25Z" style="fill-rule: evenodd; clip-rule: evenodd;"/>
    <path d="M29.5,36.25l-4.5,-4.5l-4.5,4.5l4.5,4.5L29.5,36.25Z M32,36.25l-6.75,6.75l-6.75-6.75l6.75-6.75L32,36.25Z" style="fill-rule: evenodd; clip-rule: evenodd;"/>
    <polyline points="27.25,36.25 25,38.75 22.75,36.25 25,33.75 27.25,36.25" style="fill-rule: evenodd; clip-rule: evenodd;"/>
    <path d="M20.5,13.75l4.5,4.5l4.5-4.5l-4.5-4.5L20.5,13.75Z M18.25,13.75l6.75-6.75l6.75,6.75l-6.75,6.75L18.25,13.75Z" style="fill-rule: evenodd; clip-rule: evenodd;"/>
    <polyline points="22.75,13.75 25,10.25 27.25,13.75 25,17.25 22.75,13.75" style="fill-rule: evenodd; clip-rule: evenodd;"/>
    <path d="M36.25,22.75l-2.25,2.25l2.25,2.25l2.25-2.25z" style="fill-rule: evenodd; clip-rule: evenodd;"/>
  </g>
</svg>